<svg xmlns="http://www.w3.org/2000/svg" width="1600" height="900" viewBox="0 0 1600 900" role="img" aria-labelledby="title desc">
  <title id="title">TokenTrace listing card</title>
  <desc id="desc">A listing card for the TokenTrace ChatGPT app.</desc>
  <rect width="1600" height="900" fill="#fcfaf8"/>
  <rect x="120" y="108" width="1360" height="684" rx="12" fill="#FFFFFF" stroke="#ddd6ce" stroke-width="3"/>
  <rect x="184" y="172" width="184" height="184" rx="40" fill="#147b74"/>
  <path d="M233 293h32V256h35V224h23" fill="none" stroke="#fcfaf8" stroke-linecap="round" stroke-linejoin="round" stroke-width="15"/>
  <circle cx="233" cy="293" r="15" fill="#fbd041"/>
  <circle cx="300" cy="256" r="15" fill="#fcfaf8"/>
  <circle cx="323" cy="224" r="15" fill="#f2742c"/>
  <path d="M233 226h35" stroke="#fcfaf8" stroke-linecap="round" stroke-width="12" opacity="0.72"/>
  <path d="M233 256h20" stroke="#fcfaf8" stroke-linecap="round" stroke-width="12" opacity="0.48"/>
  <text x="416" y="240" font-family="Inter, Arial, sans-serif" font-size="72" font-weight="760" fill="#172026">TokenTrace</text>
  <text x="416" y="310" font-family="Inter, Arial, sans-serif" font-size="34" fill="#52616b">Local-first AI usage analytics for ChatGPT</text>
  <g transform="translate(184 430)">
    <rect width="1232" height="104" rx="8" fill="#f4f1ec" stroke="#ddd6ce" stroke-width="2"/>
    <text x="36" y="64" font-family="Inter, Arial, sans-serif" font-size="34" font-weight="650" fill="#172026">Read-only evidence packs</text>
    <text x="476" y="64" font-family="Inter, Arial, sans-serif" font-size="30" fill="#52616b">Raw prompts and message bodies excluded</text>
  </g>
  <g transform="translate(184 584)">
    <rect width="348" height="112" rx="8" fill="#ffffff" stroke="#ddd6ce" stroke-width="2"/>
    <text x="32" y="45" font-family="Inter, Arial, sans-serif" font-size="24" fill="#52616b">Evidence</text>
    <text x="32" y="82" font-family="Inter, Arial, sans-serif" font-size="34" font-weight="720" fill="#172026">Tokens</text>
    <rect x="388" width="348" height="112" rx="8" fill="#ffffff" stroke="#ddd6ce" stroke-width="2"/>
    <text x="420" y="45" font-family="Inter, Arial, sans-serif" font-size="24" fill="#52616b">Accounting</text>
    <text x="420" y="82" font-family="Inter, Arial, sans-serif" font-size="34" font-weight="720" fill="#172026">Cost confidence</text>
    <rect x="776" width="348" height="112" rx="8" fill="#ffffff" stroke="#ddd6ce" stroke-width="2"/>
    <text x="808" y="45" font-family="Inter, Arial, sans-serif" font-size="24" fill="#52616b">Review</text>
    <text x="808" y="82" font-family="Inter, Arial, sans-serif" font-size="34" font-weight="720" fill="#172026">Status</text>
    <rect x="1152" y="26" width="64" height="60" rx="6" fill="#147b74"/>
    <rect x="1228" y="26" width="64" height="60" rx="6" fill="#fbd041"/>
    <rect x="1304" y="26" width="64" height="60" rx="6" fill="#f2742c"/>
  </g>
</svg>
